#!OML:ASF X:\für Bonn\!DataBase\2005_08_12_Daniel\c3d\Daniel.ASF
:FULLY-SPECIFIED
:DEGREES
310
root 2.75589 17.6815 17.3158 -4.51099 4.83451 -0.395689
lowerback 4.5515 -2.39805 -0.447793
upperback 2.45268 -3.22246 -2.37464
thorax -0.141451 -1.60239 -2.03576
lowerneck 3.81352 -6.28505 -7.07661
upperneck 20.5234 -9.42867 5.34923
head 6.19326 -4.79621 2.45355
rclavicle 1.67725e-014 1.11319e-014
rhumerus -53.7057 6.46076 -99.9211
rradius 115.589
rwrist -33.3221
rhand -20.1211 22.1511
rfingers 7.12502
rthumb 6.22293 -7.73745
lclavicle 1.67725e-014 1.11319e-014
lhumerus -34.187 31.9275 73.5421
lradius 20.2006
lwrist -32.3444
lhand -10.4107 -6.43553
lfingers 7.12502
lthumb 15.5881 22.9563
rfemur 7.44737 23.0383 22.1554
rtibia 14.2453
rfoot -24.0089 -25.6936
rtoes -11.731
lfemur 2.29062 -16.4008 -20.3142
ltibia 25.2854
lfoot -23.162 15.8339
ltoes -11.6362
311
root 2.75452 17.6818 17.3143 -4.49791 4.75889 -0.417332
lowerback 4.52888 -2.43237 -0.458225
upperback 2.44559 -3.26822 -2.337
thorax -0.134887 -1.62559 -1.98993
lowerneck 3.68413 -6.19238 -7.06716
upperneck 20.6927 -9.2903 5.27365
head 6.25587 -4.73046 2.43004
rclavicle -3.63279e-014 -2.06736e-014
rhumerus -53.7364 6.66384 -100.165
rradius 115.303
rwrist -32.9678
rhand -20.3542 22.4279
rfingers 7.12502
rthumb 5.99788 -7.46718
lclavicle -3.63279e-014 -2.06736e-014
lhumerus -34.1394 31.7915 73.7154
lradius 20.1915
lwrist -32.3426
lhand -10.4717 -6.32953
lfingers 7.12502
lthumb 15.5293 23.0669
rfemur 7.41806 23.0987 22.1722
rtibia 14.237
rfoot -23.9931 -25.6617
rtoes -11.6816
lfemur 2.28924 -16.4212 -20.3056
ltibia 25.2883
lfoot -23.17 15.9247
ltoes -11.7021
312
root 2.75258 17.682 17.3142 -4.50733 4.70212 -0.430316
lowerback 4.48726 -2.4626 -0.462397
upperback 2.48308 -3.30708 -2.33182
thorax -0.0738884 -1.64486 -1.98346
lowerneck 3.55489 -6.10388 -7.04452
upperneck 20.781 -9.16586 5.268
head 6.2957 -4.66638 2.42665
rclavicle 6.11263e-015 -7.95139e-016
rhumerus -53.7461 6.80647 -100.453
rradius 114.994
rwrist -32.5887
rhand -20.6212 22.8375
rfingers 7.12502
rthumb 5.74009 -7.06478
lclavicle 6.11263e-015 -7.95139e-016
lhumerus -34.0083 31.7118 73.8338
lradius 20.1577
lwrist -32.4065
lhand -10.4534 -6.25396
lfingers 7.12502
lthumb 15.547 23.1411
rfemur 7.41394 23.0904 22.1825
rtibia 14.2316
rfoot -23.9633 -25.5977
rtoes -11.6481
lfemur 2.32003 -16.4793 -20.3128
ltibia 25.2907
lfoot -23.2086 16.0256
ltoes -11.6817
313
root 2.7512 17.6822 17.3133 -4.50521 4.62946 -0.428226
lowerback 4.45244 -2.49544 -0.505796
upperback 2.49815 -3.35134 -2.29168
thorax -0.0355712 -1.66747 -1.9181
lowerneck 3.40388 -6.00774 -7.06238
upperneck 20.9175 -9.01773 5.18851
head 6.35236 -4.59793 2.40663
rclavicle 5.35228e-014 2.3059e-014
rhumerus -53.7318 7.00793 -100.658
rradius 114.686
rwrist -32.2259
rhand -20.8068 23.2144
rfingers 7.12502
rthumb 5.56084 -6.69259
lclavicle 5.35228e-014 2.3059e-014
lhumerus -33.9653 31.8154 73.9246
lradius 20.1253
lwrist -32.5364
lhand -10.4484 -6.20163
lfingers 7.12502
lthumb 15.5518 23.193
rfemur 7.38345 23.0537 22.1526
rtibia 14.2258
rfoot -23.8981 -25.4691
rtoes -11.5838
lfemur 2.33044 -16.4764 -20.3214
ltibia 25.2921
lfoot -23.2318 16.0868
ltoes -11.6679
314
root 2.7497 17.6822 17.3118 -4.51173 4.5752 -0.428923
lowerback 4.40014 -2.52065 -0.50752
upperback 2.53307 -3.38338 -2.29903
thorax 0.0281336 -1.68328 -1.92677
lowerneck 3.29264 -5.89288 -6.98871
upperneck 21.0008 -8.85187 5.14606
head 6.381 -4.51282 2.3867
rclavicle 7.90169e-015 -3.18055e-015
rhumerus -53.7157 7.12304 -100.941
rradius 114.373
rwrist -31.8272
rhand -21.0382 23.5488
rfingers 7.12502
rthumb 5.33743 -6.364
lclavicle 7.90169e-015 -3.18055e-015
lhumerus -33.7986 31.7252 74.0225
lradius 20.0488
lwrist -32.523
lhand -10.3832 -6.1834
lfingers 7.12502
lthumb 15.6146 23.2064
rfemur 7.36086 23.0419 22.1385
rtibia 14.2391
rfoot -23.8876 -25.3837
rtoes -11.5073
lfemur 2.36377 -16.5758 -20.3543
ltibia 25.2823
lfoot -23.2657 16.2283
ltoes -11.6409
315
root 2.74739 17.6824 17.3109 -4.52188 4.52759 -0.444453
lowerback 4.36755 -2.54754 -0.533592
upperback 2.53607 -3.4194 -2.26546
thorax 0.0518213 -1.70169 -1.87786
lowerneck 3.24826 -5.76595 -6.94946
upperneck 21.1084 -8.66704 5.0678
head 6.40553 -4.42468 2.36425
rclavicle -7.65321e-015 -1.59028e-014
rhumerus -53.7412 7.26197 -101.148
rradius 114.068
rwrist -31.4517
rhand -21.2448 23.8723
rfingers 7.12502
rthumb 5.13796 -6.04544
lclavicle -7.65321e-015 -1.59028e-014
lhumerus -33.7821 31.7623 74.0724
lradius 20.0256
lwrist -32.648
lhand -10.3144 -6.20765
lfingers 7.12502
lthumb 15.6809 23.1769
rfemur 7.35074 23.099 22.1739
rtibia 14.2639
rfoot -23.916 -25.3831
rtoes -11.4658
lfemur 2.38686 -16.557 -20.3304
ltibia 25.2684
lfoot -23.2725 16.2467
ltoes -11.633
316
root 2.74612 17.6823 17.3102 -4.5336 4.46171 -0.418833
lowerback 4.30178 -2.57001 -0.568293
upperback 2.58505 -3.44833 -2.26647
thorax 0.139903 -1.71623 -1.86303
lowerneck 3.1548 -5.62391 -6.84149
upperneck 21.1475 -8.45314 4.97043
head 6.41055 -4.3177 2.32496
rclavicle -3.16813e-014 -2.38542e-014
rhumerus -53.6802 7.38224 -101.358
rradius 113.774
rwrist -31.1023
rhand -21.3734 24.1773
rfingers 7.12502
rthumb 5.01382 -5.74335
lclavicle -3.16813e-014 -2.38542e-014
lhumerus -33.6643 31.7672 74.1439
lradius 20.0154
lwrist -32.703
lhand -10.2142 -6.19895
lfingers 7.12502
lthumb 15.7773 23.178
rfemur 7.32362 23.0391 22.1228
rtibia 14.2852
rfoot -23.8433 -25.2757
rtoes -11.5038
lfemur 2.43505 -16.6352 -20.3958
ltibia 25.253
lfoot -23.3062 16.3841
ltoes -11.6071
317
root 2.74372 17.6815 17.309 -4.54972 4.40114 -0.444533
lowerback 4.26371 -2.59697 -0.583358
upperback 2.59937 -3.48371 -2.22979
thorax 0.177961 -1.73422 -1.81786
lowerneck 3.15914 -5.47004 -6.70697
upperneck 21.1485 -8.21832 4.82207
head 6.38294 -4.20383 2.2696
rclavicle -5.58585e-014 -2.8625e-014
rhumerus -53.6936 7.51144 -101.558
rradius 113.507
rwrist -30.8065
rhand -21.4648 24.3795
rfingers 7.12502
rthumb 4.92553 -5.54329
lclavicle -5.58585e-014 -2.8625e-014
lhumerus -33.6239 31.7261 74.2182
lradius 19.9974
lwrist -32.7628
lhand -10.1633 -6.21867
lfingers 7.12502
lthumb 15.8264 23.1544
rfemur 7.30235 22.9949 22.1431
rtibia 14.3039
rfoot -23.7824 -25.1937
rtoes -11.5273
lfemur 2.48252 -16.6812 -20.3865
ltibia 25.2428
lfoot -23.3456 16.4713
ltoes -11.577
318
root 2.74209 17.6812 17.3082 -4.57413 4.33311 -0.457495
lowerback 4.24303 -2.61399 -0.591816
upperback 2.60953 -3.50611 -2.21656
thorax 0.200618 -1.74556 -1.80001
lowerneck 3.14642 -5.30366 -6.52114
upperneck 21.206 -7.96537 4.65203
head 6.3729 -4.07843 2.19887
rclavicle -3.32219e-014 -1.82882e-014
rhumerus -53.7452 7.6079 -101.782
rradius 113.276
rwrist -30.5352
rhand -21.5611 24.6187
rfingers 7.12502
rthumb 4.83258 -5.30622
lclavicle -3.32219e-014 -1.82882e-014
lhumerus -33.6056 31.8617 74.1799
lradius 19.9596
lwrist -32.9481
lhand -10.0392 -6.22356
lfingers 7.12502
lthumb 15.9459 23.14
rfemur 7.28711 22.9695 22.149
rtibia 14.3352
rfoot -23.7506 -25.1012
rtoes -11.3912
lfemur 2.53223 -16.6775 -20.384
ltibia 25.2237
lfoot -23.3408 16.531
ltoes -11.6474
319
root 2.74094 17.6813 17.3072 -4.56629 4.29771 -0.457038
lowerback 4.16324 -2.64634 -0.603358
upperback 2.63792 -3.54758 -2.2128
thorax 0.274031 -1.7663 -1.79296
lowerneck 3.1544 -5.1212 -6.30846
upperneck 21.1942 -7.69353 4.50605
head 6.33648 -3.94065 2.13328
rclavicle -1.43622e-014 -2.62396e-014
rhumerus -53.7257 7.71656 -102.003
rradius 113.046
rwrist -30.242
rhand -21.6248 24.7877
rfingers 7.12502
rthumb 4.77103 -5.13854
lclavicle -1.43622e-014 -2.62396e-014
lhumerus -33.5072 31.7892 74.2482
lradius 19.9358
lwrist -32.8445
lhand -9.9765 -6.24609
lfingers 7.12502
lthumb 16.0063 23.1127
rfemur 7.25962 23.0059 22.1489
rtibia 14.3545
rfoot -23.7644 -25.0898
rtoes -11.3485
lfemur 2.54121 -16.7211 -20.3952
ltibia 25.211
lfoot -23.355 16.6027
ltoes -11.6329
